<svg viewBox="0 0 14 14" fill="red" xmlns="http://www.w3.org/2000/svg" class="text-red w-full"><path fill-rule="evenodd" clip-rule="evenodd" d="M7.00004 12.3333C9.94556 12.3333 12.3334 9.94553 12.3334 7.00001C12.3334 4.05449 9.94556 1.66668 7.00004 1.66668C4.05452 1.66668 1.66671 4.05449 1.66671 7.00001C1.66671 9.94553 4.05452 12.3333 7.00004 12.3333ZM7.00004 13.6667C10.6819 13.6667 13.6667 10.6819 13.6667 7.00001C13.6667 3.31811 10.6819 0.333344 7.00004 0.333344C3.31814 0.333344 0.333374 3.31811 0.333374 7.00001C0.333374 10.6819 3.31814 13.6667 7.00004 13.6667Z"></path><path fill-rule="evenodd" clip-rule="evenodd" d="M7.00004 3.66666C6.63185 3.66666 6.33337 3.96513 6.33337 4.33332C6.33337 4.70151 6.63185 4.99999 7.00004 4.99999C7.36823 4.99999 7.66671 4.70151 7.66671 4.33332C7.66671 3.96513 7.36823 3.66666 7.00004 3.66666ZM7.00004 6.33332C6.63185 6.33332 6.33337 6.6318 6.33337 6.99999V9.66666C6.33337 10.0348 6.63185 10.3333 7.00004 10.3333C7.36823 10.3333 7.66671 10.0348 7.66671 9.66666V6.99999C7.66671 6.6318 7.36823 6.33332 7.00004 6.33332Z"></path></svg>