<svg width="120" height="120" viewBox="0 0 120 120" fill="none" xmlns="http://www.w3.org/2000/svg"><g clip-path="url(#empty_svg__clip0_49799_441621)"><path d="M60 111c28.134 0 51-22.866 51-51S88.134 9 60 9C31.76 9 9 31.76 9 60c0 28.134 22.76 51 51 51z" fill="#EEF0FE"></path><path d="M32.071 49.157h55.311c2.072 0 3.936 1.752 3.936 3.916v34.725c0 2.061-1.76 3.916-3.936 3.916h-55.31c-2.072 0-3.937-1.752-3.937-3.916V53.073c0-2.164 1.865-3.916 3.936-3.916z" fill="#DEE2EC"></path><path d="M118.767 49.054c1.554-1.443 1.657-3.813.207-5.359-1.45-1.545-3.832-1.648-5.386-.206-1.554 1.443-1.657 3.813-.207 5.358 1.346 1.443 3.832 1.65 5.386.207zM78.267 8.661c.415-.412.518-1.133.104-1.546-.414-.412-1.14-.515-1.554-.103-.414.413-.517 1.134-.103 1.546.414.412 1.14.515 1.553.103z" fill="#EEF0FE"></path><path d="M111.412 30.815L97.636 55.236c-.518.825-1.553 1.134-2.278.619L71.742 42.15c-.829-.515-1.14-1.546-.622-2.267L89.246 8.764c.518-.824 1.554-1.133 2.28-.618l17.09 9.892 2.796 12.777z" fill="#F9F9FC"></path><path d="M108.616 18.038l-3.936 6.595c-.518 1.03-.207 2.06.725 2.679l5.904 3.4" fill="#DEE2EC"></path><path d="M92.354 24.427c.415-.103.829-.103 1.14-.103h1.243c.414.103.932.206 1.346.309.518.206.932.412 1.347.618.621.31 1.139.721 1.553 1.237.415.412.725.927.932 1.545.208.515.208 1.134.208 1.649-.104.618-.311 1.237-.622 1.752-.31.515-.621.927-1.036 1.34-.414.308-.725.514-1.243.72a2.77 2.77 0 01-1.242.31l-1.14.103c-.31 0-.621.103-1.036.206-.31.103-.518.206-.725.412l-1.14 1.443-1.863-1.03.828-1.856c.104-.309.414-.618.622-.824.31-.206.621-.31.932-.412.414-.103.725-.103 1.14-.206.413 0 .828-.103 1.242-.206a5.07 5.07 0 001.14-.413c.414-.206.62-.515.828-.927.104-.206.207-.515.31-.824 0-.31 0-.515-.103-.721-.103-.31-.207-.516-.414-.722a4.497 4.497 0 00-.725-.618 3.84 3.84 0 00-1.14-.515c-.31-.103-.621-.103-.932-.103h-.725c-.103 0-.31 0-.414-.103-.207-.103-.414-.412-.414-.619l.103-1.442zm-5.282 13.601c.103-.206.31-.412.518-.618.207-.103.414-.309.621-.309.518-.103 1.036-.103 1.45.206.207.103.415.31.622.515l.31.619c.311 1.03-.31 1.957-1.346 2.267-.518.103-1.036 0-1.45-.207-.207-.103-.415-.309-.622-.515-.103-.206-.31-.412-.31-.618a.877.877 0 010-.721c0-.206.103-.413.207-.619z" fill="#BFC2CF"></path><path d="M22.853 20.202l15.744 16.384c.518.618.518 1.442-.104 1.957L22.44 53.691c-.622.515-1.45.515-1.968-.103L.376 32.464c-.518-.618-.518-1.443.104-1.958l11.704-10.922 10.669.618z" fill="#F9F9FC"></path><path d="M12.08 19.377l4.35 4.534a1.632 1.632 0 002.28 0l4.04-3.812" fill="#DEE2EC"></path><path d="M13.324 33.494c0-.309.103-.618.207-.927l.31-.927c.104-.31.311-.619.519-.928.207-.309.517-.618.828-.927.414-.412.829-.721 1.347-.927.414-.207.932-.31 1.346-.31.415 0 .932.103 1.347.206.414.206.828.516 1.243.825.31.309.621.721.725 1.133.103.31.207.721.31 1.134v1.03c-.103.31-.103.618-.207.928 0 .309-.103.515-.103.824 0 .206 0 .412.207.618l.829 1.237-1.244 1.133-1.242-1.133c-.208-.206-.415-.412-.518-.722-.104-.309-.104-.515-.104-.824 0-.31.104-.618.104-.927.103-.31.103-.619.103-.928 0-.309 0-.618-.103-.927-.104-.31-.311-.618-.518-.928-.104-.206-.31-.309-.518-.412-.207-.103-.414-.103-.622-.103-.207 0-.414.103-.621.206-.207.103-.414.206-.622.413-.207.206-.414.515-.621.72-.104.207-.207.413-.31.722-.104.206-.104.412-.104.515 0 .103-.104.206-.207.31-.104.206-.415.206-.622.102l-1.14-.206zm9.529 7.213c-.104-.103-.207-.309-.31-.515-.104-.206-.104-.412-.104-.618 0-.412.207-.824.517-1.133.104-.104.311-.207.518-.31.208-.103.415-.103.622-.103.621 0 1.243.413 1.45 1.03.104.207.104.413.104.619 0 .206-.104.412-.104.618-.104.206-.207.31-.414.515-.104.103-.311.31-.518.31-.415.103-.829.103-1.14 0-.31-.103-.518-.206-.621-.413z" fill="#BFC2CF"></path><path d="M63.974 45.962l-6.112 21.742c-.207.722-1.035 1.237-1.76.928l-21.234-6.183c-.725-.206-1.243-1.03-.932-1.752l8.286-28.027c.207-.722 1.036-1.237 1.76-.928l15.434 4.534 4.558 9.686z" fill="#F9F9FC"></path><path d="M59.313 36.482l-1.864 5.977c-.208.824.31 1.752 1.139 1.958l5.386 1.648" fill="#DEE2EC"></path><path d="M47.712 44.623l.932-.309c.31-.103.621-.206 1.036-.206h1.14c.413 0 .828.103 1.242.206.518.103 1.036.412 1.45.721a4.9 4.9 0 011.036 1.03c.207.413.414.825.518 1.237.103.516 0 1.03-.104 1.443-.103.412-.31.824-.621 1.236-.207.31-.518.619-.829.825-.31.206-.621.412-.932.515l-.932.309c-.208.103-.518.206-.725.31-.208.102-.415.308-.415.514l-.621 1.34-1.657-.721.31-1.649c0-.31.208-.515.415-.721.207-.206.414-.413.725-.516.31-.103.621-.206.828-.309.311-.103.622-.206.932-.412.311-.103.518-.309.83-.515a1.99 1.99 0 00.517-.928v-.515c0-.206-.103-.412-.207-.618-.104-.206-.31-.31-.518-.515a5.063 5.063 0 00-.725-.31c-.31-.102-.622-.102-1.036-.102-.207 0-.518 0-.725.103-.207 0-.414.103-.518.103-.103 0-.207.103-.414 0-.207 0-.414-.206-.414-.412l-.518-1.134zm-1.554 11.85c.104-.206.104-.412.31-.515.104-.206.311-.31.415-.412a1.507 1.507 0 011.14-.103c.207.103.414.206.517.309l.415.412c.414.721.103 1.649-.622 1.958a1.508 1.508 0 01-1.14.103c-.206-.103-.413-.103-.517-.31-.207-.102-.31-.309-.414-.411-.104-.207-.104-.31-.208-.516 0-.103.104-.309.104-.515z" fill="#BFC2CF"></path><path d="M113.899 83.16L93.804 93.98c-.621.31-1.553.103-1.864-.618L81.893 73.887c-.311-.618-.104-1.546.621-1.855l26.102-13.704c.621-.31 1.554-.104 1.864.618l7.251 14.117-3.832 10.098z" fill="#F9F9FC"></path><path d="M117.627 73.269l-5.593 2.885c-.725.412-1.036 1.443-.725 2.164l2.486 4.946" fill="#DEE2EC"></path><path d="M103.644 70.59c.311.103.518.309.829.412.311.103.518.31.829.618.31.31.517.515.725.825.31.309.518.618.725 1.03.31.412.414 1.03.414 1.443.104.515 0 .927 0 1.442-.104.412-.311.825-.518 1.237a3.24 3.24 0 01-1.139.927c-.415.206-.829.31-1.243.412a2.142 2.142 0 01-1.14 0c-.31-.103-.725-.103-1.035-.309l-.829-.412c-.207-.103-.518-.206-.725-.31-.207-.102-.518-.102-.622.104l-1.346.515-.725-1.442 1.346-.928c.208-.206.518-.206.829-.206.311 0 .518 0 .829.103.31.103.518.31.725.31.31.102.518.308.932.411.311.103.518.103.932.206.311 0 .622-.102 1.036-.309.414-.206.725-.515.725-1.03.104-.206 0-.412 0-.721-.104-.207-.104-.413-.311-.722-.103-.309-.31-.515-.518-.824-.103-.103-.31-.31-.518-.412-.103-.103-.31-.206-.414-.31-.103-.102-.207-.102-.311-.308-.103-.103-.103-.413 0-.516l.518-1.236zm-9.529 7.11c.207-.103.31-.206.622-.103.207-.103.414 0 .517 0 .415.103.725.412.83.721.103.206.103.412.103.618v.515c-.104.31-.415.722-.725.825-.208.103-.415.103-.622.103h-.518c-.414-.103-.725-.412-.828-.721-.104-.207-.104-.413-.104-.619-.103-.206 0-.412 0-.515.104-.206.207-.309.207-.515.104-.103.415-.103.518-.31z" fill="#BFC2CF"></path><path d="M92.354 71.517v17.105c0 2.164-1.864 4.02-4.04 4.02H31.45c-2.175 0-4.04-1.856-4.04-4.02V70.075" stroke="#1676EE" stroke-width="3" stroke-linecap="round" stroke-linejoin="round"></path><path d="M90.179 60.492H70.706c-1.864 0-3.729.618-5.179 1.855l-5.179 4.121c-1.45 1.134-3.314 1.855-5.179 1.855H33.003c-2.175 0-4.04 1.752-4.04 4.019 0 .206 0 .412.104.618l4.04 21.124c.31 1.957 2.072 3.503 4.04 3.503h47.335c2.072 0 3.729-1.443 4.04-3.4l5.696-29.058c.311-2.164-1.139-4.225-3.418-4.534-.207-.103-.414-.103-.621-.103z" fill="#fff"></path><path d="M96.33 56.25H72.666c-2.219 0-4.543.841-6.233 2.209l-6.338 5.153a9.818 9.818 0 01-6.233 2.209H26.715c-2.641 0-4.965 2.103-4.965 4.943 0 .21 0 .526.106.736l4.964 26.188c.423 2.419 2.43 4.312 4.965 4.312h57.572c2.43 0 4.543-1.788 4.965-4.207l6.866-35.864c.423-2.629-1.373-5.258-4.12-5.679h-.739z" fill="#fff"></path><path d="M50.405 83.367c1.346 0 2.486-1.133 2.486-2.473 0-1.34-1.14-2.473-2.486-2.473-1.347 0-2.486 1.133-2.486 2.473 0 1.34 1.14 2.473 2.486 2.473zM70.189 83.264c1.346 0 2.485-1.133 2.485-2.473 0-1.34-1.139-2.473-2.486-2.473-1.346 0-2.485 1.133-2.485 2.473 0 1.34 1.139 2.473 2.486 2.473zM65.735 87.386h-1.347c-1.14-2.267-3.936-3.194-6.11-1.958-.933.412-1.658 1.237-1.969 1.958h-1.346c1.139-2.988 4.557-4.534 7.457-3.4 1.554.618 2.693 1.854 3.315 3.4z" fill="#868C9F"></path><path d="M112.063 98.082c-.315 1.37-.735 2.528-1.26 3.793a3.2 3.2 0 01-.419.843c-1.785 3.371-4.513 6.11-7.872 7.796-.42.21-.839.421-1.154.527-3.254 1.369-6.927 1.896-10.6 1.053-9.656-2.002-15.953-11.589-13.854-21.282 1.994-9.692 11.545-16.013 21.2-13.906 3.464.737 6.507 2.423 9.131 4.951 4.303 4.11 6.192 10.325 4.828 16.225z" fill="#92A2FB"></path><path d="M101.66 99.858l-2.59-2.684c1.968-2.993 1.243-7.019-1.863-9.084-3.003-1.96-7.042-1.238-9.113 1.859-1.968 2.993-1.243 7.019 1.864 9.083 2.175 1.445 5.074 1.445 7.145 0l2.59 2.581a1.316 1.316 0 001.863 0c.518-.516.621-1.239.104-1.755zm-10.874-3.406a3.916 3.916 0 010-5.574 3.946 3.946 0 015.592 0 3.916 3.916 0 010 5.574c-1.553 1.445-4.038 1.445-5.592 0z" fill="#fff"></path></g><defs><clipPath id="empty_svg__clip0_49799_441621"><path fill="#fff" d="M0 0h120v120H0z"></path></clipPath></defs></svg>